<?xml version="1.0" encoding="utf-8"?>
<!-- Generator: Adobe Illustrator 22.1.0, SVG Export Plug-In . SVG Version: 6.00 Build 0)  -->
<svg version="1.1" id="Celtic_Cross" xmlns="http://www.w3.org/2000/svg" xmlns:xlink="http://www.w3.org/1999/xlink" x="0px"
	 y="0px" viewBox="0 0 864 864" enable-background="new 0 0 864 864" xml:space="preserve">
<path d="M432,153.881c-153.601,0-278.118,124.517-278.118,278.118S278.398,710.117,432,710.117
	c153.6,0,278.119-124.517,278.119-278.118S585.6,153.881,432,153.881z M432,632.217c-110.577,0-200.218-89.641-200.218-200.219
	c0-110.577,89.641-200.218,200.218-200.218s200.218,89.641,200.218,200.218C632.218,542.577,542.577,632.217,432,632.217z"/>
<path fill="#dbcc9b" d="M774,432c0-54.937-11.159-92.706-23.177-122.75l-66.484,18.057c-2.979,0.809-6.112-0.668-7.361-3.492
	c-26.932-60.896-75.898-109.863-136.795-136.795c-2.824-1.249-4.301-4.382-3.492-7.361l18.058-66.483
	C524.707,101.16,486.937,90.001,432,90.001c-54.937,0-92.706,11.159-122.75,23.176l18.058,66.483
	c0.809,2.98-0.668,6.112-3.492,7.361c-60.896,26.932-109.863,75.899-136.795,136.795c-1.249,2.824-4.382,4.301-7.361,3.492
	l-66.484-18.057C101.159,339.294,90,377.064,90,432c0,54.937,11.159,92.706,23.176,122.751l66.486-18.058
	c2.98-0.809,6.112,0.668,7.361,3.492c26.932,60.895,75.898,109.86,136.793,136.792c2.824,1.249,4.301,4.382,3.492,7.361
	l-18.058,66.487c30.044,12.018,67.813,23.175,122.75,23.175c54.937,0,92.707-11.157,122.751-23.175l-18.058-66.487
	c-0.809-2.979,0.668-6.112,3.492-7.361c60.895-26.931,109.861-75.897,136.793-136.791c1.249-2.824,4.382-4.301,7.361-3.492
	l66.485,18.058C762.841,524.706,774,486.938,774,432z M615.948,345.882l-96.409,26.185c0.01,0.065,0.02,0.13,0.03,0.195
	c2.505,16.615-7.558,32.806-23.74,37.334c-12.916,3.614-25.101-0.184-33.322-8.103c-6.01-6.237-9.644-14.76-9.47-24.148
	c0.34-18.31,15.041-32.677,33.346-33.228c1.884-0.057,3.734,0.058,5.55,0.345v-0.018l26.183-96.394
	c1.047-3.854,5.369-5.734,8.931-3.929c39.956,20.253,72.576,52.874,92.83,92.829C621.682,340.514,619.802,344.836,615.948,345.882z
	 M372.067,344.444v0.018c0.855-0.135,1.718-0.233,2.672-0.293c17.535-1.11,33.365,11.383,35.867,28.774
	c1.598,11.106-2.177,21.351-9.112,28.55c-7.15,6.888-17.303,10.658-28.32,9.145c-18.453-2.535-31.498-19.912-28.748-38.334
	c0.012-0.079,0.024-0.158,0.036-0.237l-96.409-26.185c-3.854-1.047-5.734-5.369-3.929-8.931
	c20.254-39.956,52.874-72.576,92.83-92.829c3.562-1.806,7.884,0.074,8.931,3.929L372.067,344.444z M244.125,527.049
	c-1.806-3.562,0.074-7.884,3.929-8.931l96.408-26.185c-0.012-0.078-0.024-0.156-0.036-0.235
	c-2.749-18.404,10.265-35.768,28.696-38.328c11.037-1.533,21.211,2.242,28.372,9.121v0.017c6.427,6.671,10.139,15.957,9.378,26.122
	c-1.299,17.338-15.348,30.539-32.721,31.253c-2.068,0.085-4.096-0.029-6.084-0.343l-26.184,96.406
	c-1.047,3.854-5.369,5.734-8.931,3.929C296.997,599.621,264.378,567.002,244.125,527.049z M491.933,519.539
	c-0.04,0.006-0.08,0.012-0.119,0.019c-17.065,2.614-33.573-8.113-37.711-24.875c-3.082-12.484,0.718-24.199,8.404-32.176v-0.017
	c7.162-6.878,17.331-10.654,28.372-9.121c18.432,2.558,31.447,19.924,28.696,38.328c-0.012,0.078-0.024,0.156-0.036,0.235
	l96.408,26.185c3.854,1.047,5.734,5.369,3.929,8.931c-20.253,39.954-52.873,72.572-92.827,92.825
	c-3.562,1.806-7.884-0.074-8.931-3.929L491.933,519.539z"/>
<path d="M750.823,309.25l-78.624,21.354c-2.411,0.655-4.958-0.528-5.975-2.811c-25.745-57.78-72.239-104.274-130.019-130.019
	c-2.283-1.017-3.466-3.563-2.811-5.975l21.356-78.624C524.707,101.16,486.937,90.001,432,90.001
	c-54.937,0-92.706,11.159-122.75,23.176l21.356,78.623c0.655,2.412-0.528,4.958-2.811,5.975
	c-57.78,25.745-104.274,72.239-130.019,130.019c-1.017,2.283-3.563,3.466-5.975,2.811l-78.625-21.354
	C101.159,339.294,90,377.064,90,432c0,54.937,11.159,92.706,23.176,122.751l78.626-21.355c2.411-0.655,4.958,0.528,5.975,2.811
	c25.745,57.778,72.239,104.272,130.017,130.016c2.282,1.017,3.466,3.563,2.811,5.975l-21.355,78.627
	c30.044,12.018,67.813,23.175,122.75,23.175c54.937,0,92.707-11.157,122.751-23.175l-21.355-78.627
	c-0.655-2.411,0.528-4.958,2.811-5.975c57.779-25.744,104.272-72.238,130.017-130.016c1.017-2.283,3.563-3.466,5.975-2.811
	l78.626,21.355C762.841,524.706,774,486.938,774,432C774,377.064,762.841,339.294,750.823,309.25z M730.435,354.743
	c3.218,27.039-6.009,54.723-22.534,74.465c0,0-9.763-9.121-13.949-13.305c6.867-10.301,16.953-25.537,15.023-40.13
	c-44.422,16.523-57.727,54.079-54.937,62.234c-3.435,6.008-16.953,9.87-21.46,10.944
	C630.432,372.34,708.975,354.743,730.435,354.743z M646.741,390.152c-5.794,3.863-10.944,15.237-12.876,22.532
	c-19.313,0-49.786,8.369-73.821,19.314c0,0,35.838,19.099,55.151,22.533c19.314,3.434,34.764-3.434,55.795-18.027
	c0,0,13.305,10.516,15.022,14.593c-27.04,34.122-78.544,27.684-104.724,11.588c-17.596-10.817-37.228-19.211-52.315-24.725
	c-4.967-1.815-4.96-8.816,0-10.652c12.765-4.727,29.539-12.554,45.662-21.276C600.817,391.869,628.286,386.933,646.741,390.152z
	 M528.996,231.026c45.302,21.905,82.072,58.674,103.977,103.977c1.389,2.873-0.181,6.305-3.261,7.142l-110.174,29.923
	c0.012,0.079,0.025,0.158,0.036,0.236c2.752,18.422-10.294,35.801-28.747,38.334c-11.021,1.513-21.17-2.257-28.321-9.145
	c-6.937-7.199-10.708-17.443-9.112-28.547c2.638-18.357,19.968-31.266,38.308-28.519c0.077,0.011,0.153,0.023,0.23,0.035v-0.018
	l29.921-110.158C522.691,231.207,526.123,229.637,528.996,231.026z M427.494,670.99c0,0-10.516,13.304-14.593,15.021
	c-34.121-27.039-27.683-78.542-11.588-104.724c10.817-17.595,19.211-37.227,24.725-52.314c1.815-4.967,8.816-4.96,10.652,0
	c4.726,12.764,12.554,29.539,21.275,45.662c14.164,26.18,19.101,53.649,15.882,72.105c-3.864-5.794-15.237-10.945-22.532-12.876
	c0-19.314-8.369-49.787-19.314-73.822c0,0-19.099,35.838-22.532,55.152C406.034,634.508,412.901,649.96,427.494,670.99z
	 M432,459.325c-15.092,0-27.326-12.235-27.326-27.326c0-15.091,12.234-27.326,27.326-27.326c15.093,0,27.326,12.235,27.326,27.326
	C459.325,447.09,447.093,459.325,432,459.325z M409.467,248.803C412.901,268.116,432,303.954,432,303.954
	c10.945-24.035,19.314-54.508,19.314-73.822c7.295-1.931,18.669-7.081,22.532-12.876c3.219,18.455-1.717,45.924-15.882,72.105
	c-8.722,16.124-16.549,32.899-21.275,45.663c-1.836,4.959-8.837,4.967-10.652,0c-5.514-15.087-13.908-34.719-24.725-52.314
	c-16.095-26.181-22.533-77.685,11.588-104.724c4.077,1.717,14.593,15.022,14.593,15.022
	C412.901,214.038,406.034,229.489,409.467,248.803z M509.255,133.564c0,21.46-17.596,100.002-94.208,97.857
	c1.073-4.507,4.936-18.026,10.944-21.46c8.155,2.79,45.709-10.515,62.234-54.937c-14.593-1.931-29.829,8.154-40.13,15.022
	c-4.185-4.185-13.306-13.948-13.306-13.948C454.532,139.573,482.216,130.345,509.255,133.564z M357.749,132.276
	c40.988-5.364,74.251,25.108,99.788,56.654c-4.077,7.081-10.3,9.442-17.383,12.661c-22.962-33.907-53.435-48.284-59.658-48.284
	c-1.931,13.949,3.434,22.318,15.88,34.765c-7.832,7.833-9.228,17.383-11.802,22.318C369.552,197.943,351.74,156.311,357.749,132.276
	z M231.027,335.002c21.905-45.303,58.674-82.072,103.977-103.977c2.873-1.389,6.305,0.181,7.142,3.261l29.921,110.158v0.018
	c0.077-0.012,0.155-0.024,0.232-0.036c18.36-2.749,35.701,10.196,38.314,28.575c1.576,11.083-2.197,21.305-9.121,28.492
	c-7.15,6.888-17.303,10.658-28.32,9.145c-18.453-2.535-31.498-19.912-28.748-38.334c0.012-0.079,0.024-0.158,0.036-0.237
	l-110.173-29.923C231.208,341.308,229.638,337.875,231.027,335.002z M289.363,406.032c16.124,8.722,32.898,16.55,45.663,21.276
	c4.959,1.836,4.967,8.837,0,10.652c-15.087,5.514-34.719,13.908-52.315,24.725c-26.181,16.095-77.684,22.534-104.723-11.588
	c1.717-4.077,15.021-14.593,15.021-14.593c21.031,14.593,36.482,21.461,55.796,18.027c19.314-3.434,55.152-22.533,55.152-22.533
	c-24.035-10.945-54.508-19.314-73.822-19.314c-1.931-7.296-7.082-18.669-12.876-22.532
	C235.713,386.933,263.182,391.869,289.363,406.032z M133.564,354.743c21.46,0,100.003,17.597,97.857,94.209
	c-4.507-1.074-18.026-4.936-21.46-10.944c2.79-8.155-10.515-45.71-54.937-62.234c-1.931,14.593,8.155,29.829,15.022,40.13
	c-4.185,4.184-13.949,13.305-13.949,13.305C139.573,409.466,130.346,381.783,133.564,354.743z M132.278,506.25
	c-5.365-40.988,25.108-74.251,56.654-99.789c7.082,4.078,9.442,10.301,12.661,17.383c-33.907,22.962-48.285,53.434-48.285,59.659
	c13.949,1.931,22.318-3.434,34.765-15.88c7.833,7.833,17.383,9.227,22.318,11.802C197.944,494.447,156.312,512.259,132.278,506.25z
	 M335.002,632.971c-45.301-21.904-82.069-58.673-103.974-103.973c-1.389-2.873,0.181-6.305,3.261-7.142l110.172-29.924
	c-0.012-0.078-0.024-0.156-0.036-0.235c-2.749-18.404,10.265-35.768,28.696-38.328c11.037-1.533,21.211,2.242,28.372,9.121v0.017
	c6.901,7.163,10.672,17.34,9.136,28.382c-2.563,18.427-19.928,31.434-38.329,28.685c-0.078-0.012-0.156-0.024-0.234-0.036
	L342.144,629.71C341.308,632.789,337.875,634.36,335.002,632.971z M357.749,731.721c-6.008-24.035,11.803-65.667,26.825-78.113
	c2.575,4.935,3.97,14.485,11.802,22.319c-12.446,12.446-17.811,20.815-15.88,34.764c6.223,0,36.696-14.378,59.658-48.284
	c7.083,3.218,13.305,5.579,17.383,12.66C432,706.613,398.737,737.085,357.749,731.721z M434.789,707.9c0,0,9.12-9.763,13.306-13.947
	c10.301,6.867,25.537,16.953,40.13,15.021c-16.525-44.422-54.079-57.727-62.234-54.937c-6.008-3.433-9.871-16.952-10.944-21.46
	c76.612-2.145,94.208,76.397,94.208,97.857C482.216,733.652,454.532,724.426,434.789,707.9z M632.971,528.998
	c-21.905,45.3-58.673,82.068-103.974,103.973c-2.873,1.389-6.305-0.181-7.142-3.261l-29.923-110.17
	c-0.077,0.012-0.154,0.024-0.231,0.035c-18.379,2.746-35.733-10.222-38.322-28.624c-1.557-11.065,2.213-21.267,9.127-28.443v-0.017
	c7.162-6.878,17.331-10.654,28.372-9.121c18.432,2.558,31.447,19.924,28.696,38.328c-0.012,0.078-0.024,0.156-0.036,0.235
	l110.172,29.924C632.79,522.692,634.361,526.125,632.971,528.998z M731.722,506.25c-24.035,6.009-65.668-11.803-78.114-26.826
	c4.936-2.575,14.486-3.969,22.319-11.802c12.446,12.446,20.815,17.811,34.764,15.88c0-6.225-14.378-36.697-48.283-59.659
	c3.218-7.082,5.578-13.305,12.66-17.383C706.615,431.999,737.087,465.262,731.722,506.25z"/>
<path fill="#dbcc9b" d="M374.595,332.723l-57.619-216.112C362.757,98.87,401.098,96.582,432,96.582
	c30.902,0,69.244,2.289,115.025,20.029l-57.619,216.112c-1.211,2.897-1.895,5.477-8.373,7.11
	c-6.479,1.633-30.148,6.182-34.226,40.732c-4.076,0-6.221-16.739-2.575-24.893c3.649-8.155,7.083-12.661,17.597-19.529
	c10.514-6.867,10.729-7.725,12.018-13.52c1.287-5.794,52.576-194.426,52.576-194.426C501.1,116.181,450.885,113.606,432,113.606
	c-18.885,0-69.1,2.575-94.423,14.592c0,0,51.289,188.631,52.576,194.426c1.288,5.794,1.502,6.653,12.018,13.52
	c10.515,6.867,13.949,11.374,17.597,19.529c3.647,8.154,1.502,24.893-2.576,24.893c-4.077-34.55-27.746-39.1-34.224-40.732
	C376.489,338.2,375.805,335.62,374.595,332.723z M481.033,524.165c-6.479-1.633-30.148-6.182-34.226-40.733
	c-4.076,0-6.221,16.738-2.575,24.893c3.649,8.156,7.083,12.661,17.597,19.529c10.514,6.867,10.729,7.725,12.018,13.519
	c1.287,5.794,52.576,194.425,52.576,194.425C501.1,747.816,450.885,750.391,432,750.391c-18.885,0-69.1-2.575-94.423-14.593
	c0,0,51.289-188.631,52.576-194.425c1.288-5.794,1.502-6.652,12.018-13.519c10.515-6.868,13.949-11.374,17.597-19.529
	c3.647-8.154,1.502-24.893-2.576-24.893c-4.077,34.55-27.746,39.1-34.224,40.733c-6.479,1.633-7.162,4.212-8.373,7.108
	l-57.619,216.113c45.781,17.742,84.122,20.029,115.024,20.029c30.902,0,69.244-2.287,115.025-20.029l-57.619-216.113
	C488.194,528.377,487.51,525.798,481.033,524.165z M747.387,316.974l-216.112,57.619c-2.898,1.211-5.477,1.895-7.111,8.373
	c-1.633,6.478-6.181,30.148-40.732,34.225c0,4.077,16.738,6.223,24.893,2.576c8.156-3.648,12.662-7.082,19.529-17.597
	c6.867-10.515,7.726-10.73,13.52-12.017c5.793-1.288,194.425-52.577,194.425-52.577c12.018,25.323,14.593,75.539,14.593,94.423
	c0,18.885-2.575,69.1-14.593,94.423c0,0-188.632-51.289-194.425-52.577c-5.794-1.287-6.653-1.501-13.52-12.017
	c-6.867-10.516-11.374-13.95-19.529-17.597c-8.154-3.649-24.893-1.502-24.893,2.575c34.55,4.078,39.098,27.748,40.732,34.225
	c1.633,6.479,4.213,7.163,7.111,8.373l216.112,57.619c17.742-45.781,20.029-84.122,20.029-115.024
	C767.416,401.096,765.129,362.755,747.387,316.974z M339.833,481.031c1.633-6.477,6.183-30.147,40.734-34.225
	c0-4.077-16.739-6.224-24.893-2.575c-8.155,3.648-12.662,7.082-19.529,17.597c-6.866,10.516-7.725,10.729-13.519,12.017
	c-5.794,1.289-194.426,52.577-194.426,52.577c-12.017-25.323-14.592-75.538-14.592-94.423c0-18.884,2.575-69.1,14.592-94.423
	c0,0,188.631,51.289,194.426,52.577c5.794,1.287,6.653,1.502,13.519,12.017c6.867,10.515,11.374,13.949,19.529,17.597
	c8.154,3.648,24.893,1.502,24.893-2.576c-34.55-4.077-39.1-27.747-40.734-34.225c-1.633-6.478-4.211-7.162-7.108-8.373
	l-216.113-57.619c-17.742,45.781-20.028,84.122-20.028,115.024c0,30.902,2.287,69.243,20.028,115.024l216.113-57.619
	C335.622,488.194,338.201,487.509,339.833,481.031z"/>
</svg>
